<svg width="273" height="30" fill="none" xmlns="http://www.w3.org/2000/svg"><path d="m28.559 18.498-2.496-1.441c.252-1.36.252-2.754 0-4.114l2.496-1.441a.708.708 0 0 0 .322-.82 14.593 14.593 0 0 0-3.205-5.543.705.705 0 0 0-.867-.135l-2.496 1.441A11.057 11.057 0 0 0 18.75 4.39V1.512a.702.702 0 0 0-.55-.686 14.73 14.73 0 0 0-6.4 0 .702.702 0 0 0-.55.686v2.883c-1.3.462-2.508 1.16-3.562 2.056L5.198 5.01a.696.696 0 0 0-.868.135 14.506 14.506 0 0 0-3.205 5.543.7.7 0 0 0 .322.82l2.496 1.441a11.287 11.287 0 0 0 0 4.114l-2.496 1.44a.708.708 0 0 0-.322.821 14.593 14.593 0 0 0 3.205 5.543c.223.24.586.299.867.135l2.496-1.441c1.05.902 2.256 1.6 3.563 2.056V28.5c0 .328.229.615.55.686 2.151.48 4.354.457 6.4 0a.702.702 0 0 0 .55-.686v-2.883c1.3-.463 2.508-1.16 3.563-2.056l2.496 1.441a.696.696 0 0 0 .867-.135 14.507 14.507 0 0 0 3.205-5.543.724.724 0 0 0-.328-.826ZM15 19.688A4.694 4.694 0 0 1 10.313 15 4.694 4.694 0 0 1 15 10.312 4.694 4.694 0 0 1 19.688 15 4.694 4.694 0 0 1 15 19.688ZM41.594 8.246V5.82h2.11v2.426h-2.11Zm0 14.754V10.555h2.11V23h-2.11Zm6.772 0V10.555h1.898v1.77c.914-1.368 2.235-2.052 3.961-2.052.75 0 1.438.137 2.063.41.633.266 1.105.618 1.418 1.055.312.438.53.957.656 1.559.078.39.117 1.074.117 2.05V23h-2.11v-7.57c0-.86-.081-1.5-.245-1.922a1.99 1.99 0 0 0-.88-1.02c-.413-.258-.902-.386-1.464-.386-.899 0-1.676.285-2.332.855-.649.57-.973 1.652-.973 3.246V23h-2.11Zm18.256 0-4.734-12.445h2.226l2.672 7.453c.29.805.555 1.64.797 2.508.188-.657.45-1.446.785-2.368l2.766-7.593h2.168L68.59 23h-1.969Zm18.503-4.008 2.18.27c-.344 1.273-.981 2.261-1.91 2.965-.93.703-2.118 1.054-3.563 1.054-1.82 0-3.266-.558-4.336-1.675-1.063-1.126-1.594-2.7-1.594-4.723 0-2.094.54-3.719 1.617-4.875 1.078-1.156 2.477-1.735 4.195-1.735 1.665 0 3.024.567 4.079 1.7 1.054 1.132 1.582 2.726 1.582 4.78 0 .126-.004.313-.012.563h-9.281c.078 1.368.465 2.415 1.16 3.141.695.727 1.562 1.09 2.601 1.09.774 0 1.434-.203 1.98-.61.548-.406.981-1.054 1.302-1.945Zm-6.926-3.41h6.95c-.095-1.047-.36-1.832-.798-2.355-.672-.813-1.543-1.22-2.613-1.22-.969 0-1.785.325-2.45.973-.656.649-1.019 1.516-1.09 2.602ZM91.38 23V10.555h1.898v1.886c.485-.882.93-1.464 1.337-1.746a2.37 2.37 0 0 1 1.359-.422c.71 0 1.433.227 2.168.68l-.727 1.957c-.515-.305-1.031-.457-1.547-.457-.46 0-.875.14-1.242.422-.367.273-.629.656-.785 1.148a8.22 8.22 0 0 0-.352 2.461V23h-2.109Zm14.061-1.887.305 1.864a7.826 7.826 0 0 1-1.594.187c-.765 0-1.359-.121-1.781-.363-.422-.242-.719-.559-.891-.95-.172-.398-.258-1.23-.258-2.495v-7.16h-1.546v-1.641h1.546V7.473l2.098-1.266v4.348h2.121v1.64h-2.121v7.278c0 .601.035.988.106 1.16a.922.922 0 0 0 .363.41c.172.102.414.152.726.152.235 0 .543-.027.926-.082Zm12.034-2.12 2.18.269c-.344 1.273-.981 2.261-1.911 2.965-.929.703-2.117 1.054-3.562 1.054-1.82 0-3.266-.558-4.336-1.675-1.062-1.126-1.594-2.7-1.594-4.723 0-2.094.539-3.719 1.617-4.875 1.079-1.156 2.477-1.735 4.196-1.735 1.664 0 3.023.567 4.078 1.7 1.055 1.132 1.582 2.726 1.582 4.78 0 .126-.004.313-.012.563h-9.281c.078 1.368.465 2.415 1.16 3.141.695.727 1.563 1.09 2.602 1.09.773 0 1.433-.203 1.98-.61.547-.406.981-1.054 1.301-1.945Zm-6.926-3.411h6.949c-.093-1.047-.359-1.832-.797-2.355-.671-.813-1.542-1.22-2.613-1.22-.969 0-1.785.325-2.449.973-.656.649-1.02 1.516-1.09 2.602ZM122.35 23l4.546-6.469-4.207-5.976h2.637l1.91 2.918c.36.554.649 1.02.867 1.394.344-.515.661-.973.95-1.37l2.097-2.942h2.52l-4.301 5.86L133.998 23h-2.59l-2.555-3.867-.679-1.043-3.27 4.91h-2.554Zm19.451-1.887.305 1.864a7.826 7.826 0 0 1-1.594.187c-.765 0-1.359-.121-1.781-.363-.422-.242-.719-.559-.891-.95-.172-.398-.257-1.23-.257-2.495v-7.16h-1.547v-1.641h1.547V7.473l2.097-1.266v4.348h2.121v1.64h-2.121v7.278c0 .601.035.988.106 1.16a.922.922 0 0 0 .363.41c.172.102.414.152.726.152.235 0 .543-.027.926-.082Zm2.729-4.336c0-2.304.641-4.011 1.922-5.12 1.07-.923 2.375-1.384 3.914-1.384 1.711 0 3.11.563 4.196 1.688 1.085 1.117 1.628 2.664 1.628 4.64 0 1.602-.242 2.864-.726 3.786a5.067 5.067 0 0 1-2.098 2.133 6.074 6.074 0 0 1-3 .761c-1.742 0-3.152-.558-4.23-1.675-1.071-1.118-1.606-2.727-1.606-4.829Zm2.168 0c0 1.594.348 2.79 1.043 3.586.696.79 1.571 1.184 2.625 1.184 1.047 0 1.918-.399 2.614-1.195.695-.797 1.042-2.012 1.042-3.645 0-1.539-.351-2.703-1.054-3.492-.696-.797-1.563-1.195-2.602-1.195-1.054 0-1.929.394-2.625 1.183-.695.79-1.043 1.98-1.043 3.574ZM160.713 23v-2.402h2.402V23h-2.402Zm15.643-4.559 2.074.27c-.227 1.43-.809 2.55-1.746 3.363-.93.805-2.074 1.207-3.434 1.207-1.703 0-3.074-.554-4.113-1.664-1.031-1.117-1.547-2.715-1.547-4.793 0-1.344.223-2.52.668-3.527.445-1.008 1.121-1.762 2.027-2.262a6.03 6.03 0 0 1 2.977-.762c1.351 0 2.457.344 3.316 1.032.86.68 1.41 1.648 1.653 2.906l-2.051.316c-.195-.836-.543-1.464-1.043-1.886-.492-.422-1.09-.633-1.793-.633-1.063 0-1.926.383-2.59 1.148-.664.758-.996 1.961-.996 3.61 0 1.672.32 2.886.961 3.644s1.476 1.137 2.508 1.137c.828 0 1.519-.254 2.074-.762.555-.508.906-1.289 1.055-2.344Zm4.533-1.664c0-2.304.641-4.011 1.922-5.12 1.071-.923 2.375-1.384 3.914-1.384 1.711 0 3.11.563 4.196 1.688 1.086 1.117 1.629 2.664 1.629 4.64 0 1.602-.243 2.864-.727 3.786a5.067 5.067 0 0 1-2.098 2.133 6.074 6.074 0 0 1-3 .761c-1.742 0-3.152-.558-4.23-1.675-1.07-1.118-1.606-2.727-1.606-4.829Zm2.168 0c0 1.594.348 2.79 1.043 3.586.696.79 1.571 1.184 2.625 1.184 1.047 0 1.918-.399 2.614-1.195.695-.797 1.043-2.012 1.043-3.645 0-1.539-.352-2.703-1.055-3.492-.695-.797-1.563-1.195-2.602-1.195-1.054 0-1.929.394-2.625 1.183-.695.79-1.043 1.98-1.043 3.574ZM196.474 23V10.555h1.887V12.3c.39-.61.91-1.098 1.558-1.465.649-.375 1.387-.563 2.215-.563.922 0 1.676.192 2.262.575a3.062 3.062 0 0 1 1.254 1.605c.984-1.453 2.265-2.18 3.843-2.18 1.235 0 2.184.344 2.848 1.032.664.68.996 1.73.996 3.152V23h-2.097v-7.84c0-.844-.071-1.45-.211-1.816a1.732 1.732 0 0 0-.739-.903c-.359-.226-.781-.34-1.265-.34-.875 0-1.602.293-2.18.88-.578.578-.867 1.507-.867 2.789V23h-2.11v-8.086c0-.937-.171-1.64-.515-2.11-.344-.468-.906-.702-1.688-.702-.593 0-1.144.156-1.652.468-.5.313-.863.77-1.09 1.371-.226.602-.34 1.47-.34 2.602V23h-2.109Z" fill="#333"/><path d="M226.647 28.05V5.528h1.84v22.524h-1.84Z" fill="#CCC"/><path d="M253.167 23h-2.831l-1.125-2.927h-5.15L242.998 23h-2.76l5.018-12.885h2.751L253.167 23Zm-4.791-5.098-1.775-4.78-1.74 4.78h3.515ZM255.635 23V10.115h4.175c1.582 0 2.613.065 3.094.194.738.193 1.356.615 1.854 1.265.498.645.747 1.48.747 2.505 0 .791-.143 1.456-.43 1.995-.287.54-.654.964-1.099 1.275a3.765 3.765 0 0 1-1.345.606c-.621.123-1.52.185-2.698.185h-1.696V23h-2.602Zm2.602-10.705v3.656h1.424c1.025 0 1.711-.067 2.056-.202.346-.135.615-.346.809-.633.199-.287.299-.62.299-1.002 0-.469-.138-.855-.413-1.16a1.8 1.8 0 0 0-1.046-.571c-.311-.059-.935-.088-1.872-.088h-1.257ZM268.642 23V10.115h2.602V23h-2.602Z" fill="#FFBA00"/></svg>